<svg width="1920" height="369" viewBox="0 0 1920 369" fill="none" xmlns="http://www.w3.org/2000/svg">
<g clip-path="url(#clip0_1057_327)">
<path d="M52.6629 129.691C39.4808 100.397 33.6249 54.8287 -5.8344 47.6543C-16.7649 31.2586 -27.2286 7.31457 -27.9685 -14.8833C-28.9619 -44.6844 -6.3276 -71.644 22.7994 -77.2453C35.7343 -79.7328 49.6748 -75.3681 62.676 -74.259C124.106 -69.0185 185.951 -65.5689 247.127 -57.9219C309.368 -50.1417 370.961 -38.1549 433.335 -31.3961C513.318 -22.7292 592.818 -19.4693 673.297 -18.9237C792.922 -18.1127 912.292 -21.8011 1031.66 -29.6394C1151.21 -37.49 1270.65 -39.3776 1390.37 -42.4632C1512.45 -45.6095 1637.29 -49.6572 1759.27 -41.5848C1807.34 -38.4042 1861.16 -30.8484 1904.02 -8.55931L1904.76 -8.17478C1920.41 -0.0462723 1944.7 12.577 1945.13 32.5469C1945.9 67.8486 1956.49 106.429 1936.87 138.123C1931.37 147.008 1911.87 171.252 1907.01 149.366C1903 131.339 1896.67 111.816 1875.92 109.138C1844.66 105.104 1811.51 107.18 1780 107.733C1758.83 108.104 1777.92 135.435 1777.54 150.947C1776.71 185.527 1734.12 239.45 1694.1 222.971C1678.46 216.532 1675.59 196.624 1671.62 182.04C1668.36 170.093 1665.31 151.634 1657.74 141.812C1647.87 129.011 1636.59 122.746 1629.28 107.206C1623.7 95.3506 1560.14 105.483 1553.74 118.273C1551.06 123.647 1555.25 129.472 1557.61 133.731C1565.46 147.905 1568.87 164.303 1570.43 180.283C1571.09 186.998 1567.36 276.962 1544.26 246.159C1531.22 228.782 1524.58 200.403 1524.58 179.054C1524.58 154.435 1533.01 113.696 1517.56 93.3279C1507.78 80.4431 1491.4 70.3161 1475.04 69.7884C1449.03 68.9491 1450.49 90.0475 1442.02 113.178C1433.64 136.05 1414.01 192.343 1379.13 189.242C1372.07 188.615 1367.91 178.95 1365.78 173.432C1360.83 160.642 1343.61 130.704 1328.54 129.867C1322.37 129.524 1306.79 113.197 1300.78 117.921C1297.01 120.881 1290.53 135.839 1285.85 135.839C1282.43 135.839 1279.42 115.674 1278.65 113.003C1276.84 106.763 1270.04 123.435 1269.51 124.245C1261.92 135.82 1253.06 146.77 1243.86 157.095C1232.47 169.887 1202.03 207.512 1182.38 207.512C1175.56 207.512 1168.74 168.867 1165.87 162.892C1157.88 146.245 1147.73 129.148 1127.92 127.232C1111.22 125.616 1071.76 116.349 1066.79 140.758C1060.27 172.789 1050.38 228.353 1011.98 233.511C990.141 236.445 990.424 220.386 987.039 203.12C984.242 188.854 988.471 167.018 980.715 154.46C970.299 137.597 955.384 118.628 939.433 106.854C933.186 102.243 891.591 74.805 888.841 87.1795C881.323 121.008 892.178 156.453 892.178 190.823C892.178 219.233 896.311 256.464 878.828 280.941C868.457 295.46 848.516 318.213 831.046 323.804C811.319 330.116 816.29 299.175 816.29 290.427C816.29 255.239 821.486 219.295 818.749 184.324C815.546 143.394 806.781 108.239 770.265 85.2472C754.311 75.2024 732.752 90.4323 729.334 106.152C720.285 147.777 725.001 197.536 696.485 232.632C684.824 246.983 647.429 252.981 630.785 255.996C617.596 258.385 599.527 256.064 588.976 246.686C572.771 232.281 574.925 209.531 567.896 190.999C557.799 164.38 551.579 129.096 534.168 106.327C521.622 89.9211 496.776 85.9253 480.414 73.6531C467.531 63.9912 468.468 95.6938 468.468 97.8952C468.468 129.878 483.877 162.74 475.846 194.864C464.844 238.871 458.329 284.674 412.254 304.832C380.124 318.889 386.357 261.062 386.256 247.564C386.093 225.987 386.691 206.437 381.513 185.378C376.561 165.242 373.72 136.191 362.014 118.975C353.655 106.683 321.315 74.8887 305.8 82.4365C297.299 86.5722 286.559 89.2263 280.328 96.8412C274.941 103.426 275.207 112.497 271.018 119.678C257.825 142.294 268.95 174.602 253.451 197.85C241.797 215.331 241.242 211.382 224.993 206.458C205.201 200.46 209.183 163.732 209.183 147.082C209.183 130.681 211.129 108.728 191.967 101.76C180.848 97.7165 163.259 136.598 161.928 143.92C158.643 161.987 158.238 180.94 150.861 198.377C142.514 218.107 124.95 212.079 106.242 212.079C66.7383 212.079 65.5483 158.325 52.6629 129.691Z" fill="#4C3700" stroke="#FFEB09" stroke-width="11" stroke-linecap="round"/>
<path d="M52.6629 101.691C39.4808 72.3974 33.6249 26.8287 -5.8344 19.6543C-16.7649 3.25864 -27.2286 -20.6854 -27.9685 -42.8833C-28.9619 -72.6844 -6.3276 -99.644 22.7994 -105.245C35.7343 -107.733 49.6748 -103.368 62.676 -102.259C124.106 -97.0185 185.951 -93.5689 247.127 -85.9219C309.368 -78.1417 370.961 -66.1549 433.335 -59.3961C513.318 -50.7292 592.818 -47.4693 673.297 -46.9237C792.922 -46.1127 912.292 -49.8011 1031.66 -57.6394C1151.21 -65.49 1270.65 -67.3776 1390.37 -70.4632C1512.45 -73.6095 1637.29 -77.6572 1759.27 -69.5848C1807.34 -66.4042 1861.16 -58.8484 1904.02 -36.5593L1904.76 -36.1748C1920.41 -28.0463 1944.7 -15.423 1945.13 4.54691C1945.9 39.8486 1956.49 78.4293 1936.87 110.123C1931.37 119.008 1911.87 143.252 1907.01 121.366C1903 103.339 1896.67 83.8163 1875.92 81.138C1844.66 77.1043 1811.51 79.1799 1780 79.7326C1758.83 80.1041 1777.92 107.435 1777.54 122.947C1776.71 157.527 1734.12 211.45 1694.1 194.971C1678.46 188.532 1675.59 168.624 1671.62 154.04C1668.36 142.093 1665.31 123.634 1657.74 113.812C1647.87 101.011 1636.59 94.7458 1629.28 79.2056C1623.7 67.3506 1560.14 77.483 1553.74 90.2727C1551.06 95.6467 1555.25 101.472 1557.61 105.731C1565.46 119.905 1568.87 136.303 1570.43 152.283C1571.09 158.998 1567.36 248.962 1544.26 218.159C1531.22 200.782 1524.58 172.403 1524.58 151.054C1524.58 126.435 1533.01 85.6959 1517.56 65.3279C1507.78 52.4431 1491.4 42.3161 1475.04 41.7884C1449.03 40.9491 1450.49 62.0475 1442.02 85.1783C1433.64 108.05 1414.01 164.343 1379.13 161.242C1372.07 160.615 1367.91 150.95 1365.78 145.432C1360.83 132.642 1343.61 102.704 1328.54 101.867C1322.37 101.524 1306.79 85.1971 1300.78 89.9214C1297.01 92.881 1290.53 107.839 1285.85 107.839C1282.43 107.839 1279.42 87.674 1278.65 85.0027C1276.84 78.7626 1270.04 95.4345 1269.51 96.2454C1261.92 107.82 1253.06 118.77 1243.86 129.095C1232.47 141.887 1202.03 179.512 1182.38 179.512C1175.56 179.512 1168.74 140.867 1165.87 134.892C1157.88 118.245 1147.73 101.148 1127.92 99.2317C1111.22 97.6155 1071.76 88.3493 1066.79 112.758C1060.27 144.789 1050.38 200.353 1011.98 205.511C990.141 208.445 990.424 192.386 987.039 175.12C984.242 160.854 988.471 139.018 980.715 126.46C970.299 109.597 955.384 90.6277 939.433 78.8543C933.186 74.2433 891.591 46.805 888.841 59.1795C881.323 93.0079 892.178 128.453 892.178 162.823C892.178 191.233 896.311 228.464 878.828 252.941C868.457 267.46 848.516 290.213 831.046 295.804C811.319 302.116 816.29 271.175 816.29 262.427C816.29 227.239 821.486 191.295 818.749 156.324C815.546 115.394 806.781 80.239 770.265 57.2472C754.311 47.2024 732.752 62.4323 729.334 78.1516C720.285 119.777 725.001 169.536 696.485 204.632C684.824 218.983 647.429 224.981 630.785 227.996C617.596 230.385 599.527 228.064 588.976 218.686C572.771 204.281 574.925 181.531 567.896 162.999C557.799 136.38 551.579 101.096 534.168 78.3273C521.622 61.9211 496.776 57.9253 480.414 45.6531C467.531 35.9912 468.468 67.6938 468.468 69.8952C468.468 101.878 483.877 134.74 475.846 166.864C464.844 210.871 458.329 256.674 412.254 276.832C380.124 290.889 386.357 233.062 386.256 219.564C386.093 197.987 386.691 178.437 381.513 157.378C376.561 137.242 373.72 108.191 362.014 90.9754C353.655 78.683 321.315 46.8887 305.8 54.4365C297.299 58.5722 286.559 61.2263 280.328 68.8412C274.941 75.4258 275.207 84.4969 271.018 91.678C257.825 114.294 268.95 146.602 253.451 169.85C241.797 187.331 241.242 183.382 224.993 178.458C205.201 172.46 209.183 135.732 209.183 119.082C209.183 102.681 211.129 80.728 191.967 73.7599C180.848 69.7165 163.259 108.598 161.928 115.92C158.643 133.987 158.238 152.94 150.861 170.377C142.514 190.107 124.95 184.079 106.242 184.079C66.7383 184.079 65.5483 130.325 52.6629 101.691Z" fill="#EEBA00" stroke="#FFEB09" stroke-width="11" stroke-linecap="round"/>
<path d="M861.535 250.339C861.535 234.434 871.796 219.56 875.649 204.148" stroke="white" stroke-width="5" stroke-linecap="round"/>
<path d="M1047.58 123.316C1049.95 109.899 1055.28 95.94 1055.28 82.2578" stroke="white" stroke-width="5" stroke-linecap="round"/>
<path d="M1086.07 78.4049C1090.84 74.1698 1102.73 80.5354 1107.89 82.2541" stroke="white" stroke-width="5" stroke-linecap="round"/>
<path d="M654.961 199.02C666.94 199.02 676.091 198.419 685.113 189.397C688.951 185.559 689.813 173.595 690.887 168.227" stroke="white" stroke-width="5" stroke-linecap="round"/>
<path d="M435.555 228.526C440.104 222.785 443.331 217.405 445.819 210.562" stroke="white" stroke-width="5" stroke-linecap="round"/>
<path d="M463.785 123.318C463.549 114.365 460.967 106.254 458.652 97.6562" stroke="white" stroke-width="5" stroke-linecap="round"/>
<path d="M449.668 37.3488C453.159 32.6944 452.94 27.0082 456.796 22.4509C463.758 14.2233 464.739 16.0127 473.904 21.1678C477.908 23.4202 486.477 24.6497 490.726 22.9499C494.212 21.5556 497.055 19.3858 500.991 19.3858" stroke="white" stroke-width="5" stroke-linecap="round"/>
<path d="M243.093 159.244C248.398 158.183 248.226 153.293 248.226 149.122C248.226 148.13 248.226 135.881 248.226 141.852C248.226 152.634 250.524 161.81 237.961 161.81" stroke="white" stroke-width="5" stroke-linecap="round"/>
<path d="M100.676 164.375C105.308 165.601 112.991 171.134 117.356 168.224" stroke="white" stroke-width="5" stroke-linecap="round"/>
<path d="M136.602 143.845C145.115 131.074 144.3 113.61 144.3 98.9375" stroke="white" stroke-width="5" stroke-linecap="round"/>
<path d="M1193.93 151.672C1195.67 151.916 1202.83 152.792 1204.17 150.447C1205.69 147.795 1206.35 145.626 1207.32 142.219" stroke="white" stroke-width="5" stroke-linecap="round"/>
<path d="M1390.88 133.554C1397.38 133.554 1405.62 129.159 1408.82 123.313C1411.69 118.059 1411.36 110.168 1411.36 104.406" stroke="white" stroke-width="5" stroke-linecap="round"/>
<path d="M1542.92 189.487C1546.33 192.898 1547.65 189.461 1548.43 186.336" stroke="white" stroke-width="5" stroke-linecap="round"/>
<path d="M1719.38 150.887C1723.87 151.975 1728.13 151.788 1732.64 150.887C1736.02 150.211 1734.9 141.695 1735.13 139.07" stroke="white" stroke-width="5" stroke-linecap="round"/>
<path d="M1744.59 117.801C1743.25 114.623 1743.27 110.645 1742.23 107.254C1741.69 105.529 1739.9 103.19 1739.07 101.258" stroke="white" stroke-width="5" stroke-linecap="round"/>
<path d="M1748.53 87.0748C1752.77 82.8313 1757.39 78.9076 1761.61 74.6892C1763.6 72.705 1764.96 70.1961 1767.43 68.7808C1771.46 66.4822 1775.4 63.6446 1779.25 61.0781" stroke="white" stroke-width="5" stroke-linecap="round"/>
<path d="M1900.57 51.6308C1901.08 41.6396 1901.78 31.7047 1902.14 21.6953" stroke="white" stroke-width="5" stroke-linecap="round"/>
</g>
<defs>
<clipPath id="clip0_1057_327">
<rect width="1920" height="369" fill="white"/>
</clipPath>
</defs>
</svg>
