<svg width="112" height="100" viewBox="0 0 112 100" fill="none" xmlns="http://www.w3.org/2000/svg">
<path d="M9.06509 21.561C20.5305 8.86268 38.4517 7.33782 54.0036 3C59.6256 3 63.9719 8.05615 69.5983 8.57207C75.1038 9.0769 80.1646 11.6461 85.4191 13.1653C90.8404 14.7326 96.5369 16.2106 100.788 20.2433C108.474 27.5353 111.348 38.287 106.89 47.9531C101.435 59.7808 95.2769 71.8298 88.2819 82.8162C84.9284 88.0833 80.8438 91.9436 75.2863 94.7886C69.9221 97.5347 63.7859 97.2094 57.9964 96.5205C48.2708 95.3633 39.166 93.3127 29.7074 90.7602C12.1378 86.0188 3.15113 71.5395 3.15113 53.6381C3.15113 43.3021 1.50689 29.932 9.06509 21.561Z" fill="#9EFF2F" stroke="black" stroke-width="5" stroke-linecap="round"/>
<path d="M30 48.9758C33.0307 48.9758 36.995 47.3289 39.5798 45.6035C41.4691 44.3423 43.7049 44.3141 45.642 43.1679C49.1414 41.0973 52.5901 40.2069 56.4192 39.0087C60.907 37.6044 65.3165 35.7069 69.5166 33.8377C72.2341 32.6284 76.1869 30.9759 78.4602 29.079C79.5108 28.2023 78.7164 34.9016 78.6473 35.4115C77.1088 46.7726 72.8238 57.7456 71.1257 68.7977C70.7361 71.3331 69.9452 70.9415 68.0572 70.5214C64.1693 69.6563 60.8323 65.9631 56.6438 65.2006C53.3938 64.6089 58.4928 76.8318 50.5441 68.8727C47.7342 66.059 44.1557 63.7015 42.1244 60.142C40.1428 56.6696 35.4879 52.7351 32.0207 50.9992" stroke="black" stroke-width="5" stroke-linecap="round"/>
<path d="M78.1954 34.625C76.3559 36.4857 74.7679 38.4465 73.327 40.6327C70.6481 44.6972 65.2826 46.5348 62.6166 50.5798C59.7158 54.9811 53.7206 58.0828 49.2773 60.3299" stroke="black" stroke-width="5" stroke-linecap="round"/>
</svg>
