<svg width="112" height="100" viewBox="0 0 112 100" fill="none" xmlns="http://www.w3.org/2000/svg">
<path d="M9.06509 21.561C20.5305 8.86268 38.4517 7.33782 54.0036 3C59.6256 3 63.9719 8.05615 69.5983 8.57207C75.1038 9.0769 80.1646 11.6461 85.4191 13.1653C90.8404 14.7326 96.5369 16.2106 100.788 20.2433C108.474 27.5353 111.348 38.287 106.89 47.9531C101.435 59.7808 95.2769 71.8298 88.2819 82.8162C84.9284 88.0833 80.8438 91.9436 75.2863 94.7886C69.9221 97.5347 63.7859 97.2094 57.9964 96.5205C48.2708 95.3633 39.166 93.3127 29.7074 90.7602C12.1378 86.0188 3.15113 71.5395 3.15113 53.6381C3.15113 43.3021 1.50689 29.932 9.06509 21.561Z" fill="#9EFF2F" stroke="black" stroke-width="5" stroke-linecap="round"/>
<path d="M43 32C46.5974 43.4974 55.1019 51.3193 61.1136 61.1319C62.4489 63.3115 64.6927 65.1464 66.3679 67.0694C67.7641 68.6723 69.1206 71.0561 71 72" stroke="black" stroke-width="5" stroke-linecap="round"/>
<path d="M68 22C64.0234 26 62.5405 32.6414 59.424 37.3434C54.2381 45.168 48.4888 52.4456 43.8186 60.6414C40.6778 66.1533 39.7144 72.5394 37 78" stroke="black" stroke-width="5" stroke-linecap="round"/>
</svg>
